solid ASCII
  facet normal 1.000000e+00 -0.000000e+00 0.000000e+00
    outer loop
      vertex   2.398362e+02 1.006720e+02 1.372023e+02
      vertex   2.398362e+02 1.006720e+02 1.272763e+02
      vertex   2.398362e+02 1.046720e+02 1.372023e+02
    endloop
  endfacet
  facet normal 1.000000e+00 0.000000e+00 0.000000e+00
    outer loop
      vertex   2.398362e+02 1.046720e+02 1.372023e+02
      vertex   2.398362e+02 1.006720e+02 1.272763e+02
      vertex   2.398362e+02 1.046720e+02 1.272763e+02
    endloop
  endfacet
  facet normal 0.000000e+00 1.000000e+00 0.000000e+00
    outer loop
      vertex   2.123362e+02 1.046720e+02 1.272763e+02
      vertex   2.123362e+02 1.046720e+02 1.372023e+02
      vertex   2.398362e+02 1.046720e+02 1.272763e+02
    endloop
  endfacet
  facet normal 0.000000e+00 1.000000e+00 -0.000000e+00
    outer loop
      vertex   2.398362e+02 1.046720e+02 1.272763e+02
      vertex   2.123362e+02 1.046720e+02 1.372023e+02
      vertex   2.398362e+02 1.046720e+02 1.372023e+02
    endloop
  endfacet
  facet normal 0.000000e+00 -1.000000e+00 0.000000e+00
    outer loop
      vertex   2.398362e+02 1.006720e+02 1.272763e+02
      vertex   2.398362e+02 1.006720e+02 1.372023e+02
      vertex   2.123362e+02 1.006720e+02 1.272763e+02
    endloop
  endfacet
  facet normal 0.000000e+00 -1.000000e+00 0.000000e+00
    outer loop
      vertex   2.123362e+02 1.006720e+02 1.272763e+02
      vertex   2.398362e+02 1.006720e+02 1.372023e+02
      vertex   2.123362e+02 1.006720e+02 1.372023e+02
    endloop
  endfacet
  facet normal -0.000000e+00 0.000000e+00 1.000000e+00
    outer loop
      vertex   2.123362e+02 1.046720e+02 1.372023e+02
      vertex   2.123362e+02 1.006720e+02 1.372023e+02
      vertex   2.398362e+02 1.046720e+02 1.372023e+02
    endloop
  endfacet
  facet normal 0.000000e+00 0.000000e+00 1.000000e+00
    outer loop
      vertex   2.398362e+02 1.046720e+02 1.372023e+02
      vertex   2.123362e+02 1.006720e+02 1.372023e+02
      vertex   2.398362e+02 1.006720e+02 1.372023e+02
    endloop
  endfacet
  facet normal -1.000000e+00 0.000000e+00 0.000000e+00
    outer loop
      vertex   2.123362e+02 1.046720e+02 1.272763e+02
      vertex   2.123362e+02 1.006720e+02 1.272763e+02
      vertex   2.123362e+02 1.046720e+02 1.372023e+02
    endloop
  endfacet
  facet normal -1.000000e+00 -0.000000e+00 0.000000e+00
    outer loop
      vertex   2.123362e+02 1.046720e+02 1.372023e+02
      vertex   2.123362e+02 1.006720e+02 1.272763e+02
      vertex   2.123362e+02 1.006720e+02 1.372023e+02
    endloop
  endfacet
  facet normal 0.000000e+00 0.000000e+00 -1.000000e+00
    outer loop
      vertex   2.123362e+02 1.006720e+02 1.272763e+02
      vertex   2.123362e+02 1.046720e+02 1.272763e+02
      vertex   2.398362e+02 1.006720e+02 1.272763e+02
    endloop
  endfacet
  facet normal 0.000000e+00 0.000000e+00 -1.000000e+00
    outer loop
      vertex   2.398362e+02 1.006720e+02 1.272763e+02
      vertex   2.123362e+02 1.046720e+02 1.272763e+02
      vertex   2.398362e+02 1.046720e+02 1.272763e+02
    endloop
  endfacet
endsolid
